{
	"asset":{
		"generator":"Khronos glTF Blender I/O v4.0.44",
		"version":"2.0"
	},
	"scene":0,
	"scenes":[
		{
			"name":"Scene",
			"nodes":[
				0,
				1,
				2,
				3,
				4,
				5,
				6,
				8
			]
		}
	],
	"nodes":[
		{
			"mesh":0,
			"name":"Cube.211",
			"translation":[
				-19,
				3,
				26
			]
		},
		{
			"mesh":1,
			"name":"Cube.226",
			"translation":[
				-19,
				3,
				16
			]
		},
		{
			"mesh":2,
			"name":"Cube.285",
			"translation":[
				-29,
				26,
				21
			]
		},
		{
			"mesh":3,
			"name":"Cube.302",
			"translation":[
				-18,
				15,
				18
			]
		},
		{
			"mesh":4,
			"name":"Cube.356",
			"translation":[
				-1,
				1,
				15
			]
		},
		{
			"mesh":5,
			"name":"Cube.363",
			"translation":[
				-3,
				3,
				26
			]
		},
		{
			"mesh":6,
			"name":"Cube.369",
			"translation":[
				-1,
				14,
				20
			]
		},
		{
			"name":"Bone"
		},
		{
			"children":[
				7
			],
			"name":"Armature",
			"translation":[
				-3,
				13,
				16
			]
		}
	],
	"meshes":[
		{
			"name":"Cube.007",
			"primitives":[
				{
					"attributes":{
						"POSITION":0,
						"NORMAL":1,
						"TEXCOORD_0":2
					},
					"indices":3
				}
			]
		},
		{
			"name":"Cube.227",
			"primitives":[
				{
					"attributes":{
						"POSITION":4,
						"NORMAL":5,
						"TEXCOORD_0":6
					},
					"indices":3
				}
			]
		},
		{
			"name":"Cube.286",
			"primitives":[
				{
					"attributes":{
						"POSITION":7,
						"NORMAL":8,
						"TEXCOORD_0":9
					},
					"indices":10
				}
			]
		},
		{
			"name":"Cube.303",
			"primitives":[
				{
					"attributes":{
						"POSITION":11,
						"NORMAL":12,
						"TEXCOORD_0":13
					},
					"indices":14
				}
			]
		},
		{
			"name":"Cube.357",
			"primitives":[
				{
					"attributes":{
						"POSITION":15,
						"NORMAL":16,
						"TEXCOORD_0":17
					},
					"indices":3
				}
			]
		},
		{
			"name":"Cube.364",
			"primitives":[
				{
					"attributes":{
						"POSITION":18,
						"NORMAL":19,
						"TEXCOORD_0":20
					},
					"indices":3
				}
			]
		},
		{
			"name":"Cube.370",
			"primitives":[
				{
					"attributes":{
						"POSITION":21,
						"NORMAL":22,
						"TEXCOORD_0":23
					},
					"indices":24
				}
			]
		}
	],
	"skins":[
		{
			"inverseBindMatrices":25,
			"joints":[
				7
			],
			"name":"Armature"
		}
	],
	"accessors":[
		{
			"bufferView":0,
			"componentType":5126,
			"count":240,
			"max":[
				3,
				11,
				2
			],
			"min":[
				-1,
				-3,
				-2
			],
			"type":"VEC3"
		},
		{
			"bufferView":1,
			"componentType":5126,
			"count":240,
			"type":"VEC3"
		},
		{
			"bufferView":2,
			"componentType":5126,
			"count":240,
			"type":"VEC2"
		},
		{
			"bufferView":3,
			"componentType":5123,
			"count":360,
			"type":"SCALAR"
		},
		{
			"bufferView":4,
			"componentType":5126,
			"count":240,
			"max":[
				3,
				11,
				2
			],
			"min":[
				-1,
				-3,
				-2
			],
			"type":"VEC3"
		},
		{
			"bufferView":5,
			"componentType":5126,
			"count":240,
			"type":"VEC3"
		},
		{
			"bufferView":6,
			"componentType":5126,
			"count":240,
			"type":"VEC2"
		},
		{
			"bufferView":7,
			"componentType":5126,
			"count":264,
			"max":[
				9,
				1,
				1
			],
			"min":[
				-1,
				-13,
				-1
			],
			"type":"VEC3"
		},
		{
			"bufferView":8,
			"componentType":5126,
			"count":264,
			"type":"VEC3"
		},
		{
			"bufferView":9,
			"componentType":5126,
			"count":264,
			"type":"VEC2"
		},
		{
			"bufferView":10,
			"componentType":5123,
			"count":396,
			"type":"SCALAR"
		},
		{
			"bufferView":11,
			"componentType":5126,
			"count":2592,
			"max":[
				15,
				1,
				9
			],
			"min":[
				-1,
				-5,
				-3
			],
			"type":"VEC3"
		},
		{
			"bufferView":12,
			"componentType":5126,
			"count":2592,
			"type":"VEC3"
		},
		{
			"bufferView":13,
			"componentType":5126,
			"count":2592,
			"type":"VEC2"
		},
		{
			"bufferView":14,
			"componentType":5123,
			"count":3888,
			"type":"SCALAR"
		},
		{
			"bufferView":15,
			"componentType":5126,
			"count":240,
			"max":[
				1,
				13,
				3
			],
			"min":[
				-3,
				-1,
				-1
			],
			"type":"VEC3"
		},
		{
			"bufferView":16,
			"componentType":5126,
			"count":240,
			"type":"VEC3"
		},
		{
			"bufferView":17,
			"componentType":5126,
			"count":240,
			"type":"VEC2"
		},
		{
			"bufferView":18,
			"componentType":5126,
			"count":240,
			"max":[
				3,
				11,
				2
			],
			"min":[
				-1,
				-3,
				-2
			],
			"type":"VEC3"
		},
		{
			"bufferView":19,
			"componentType":5126,
			"count":240,
			"type":"VEC3"
		},
		{
			"bufferView":20,
			"componentType":5126,
			"count":240,
			"type":"VEC2"
		},
		{
			"bufferView":21,
			"componentType":5126,
			"count":1104,
			"max":[
				7,
				11,
				5
			],
			"min":[
				-1,
				-1,
				-3
			],
			"type":"VEC3"
		},
		{
			"bufferView":22,
			"componentType":5126,
			"count":1104,
			"type":"VEC3"
		},
		{
			"bufferView":23,
			"componentType":5126,
			"count":1104,
			"type":"VEC2"
		},
		{
			"bufferView":24,
			"componentType":5123,
			"count":1656,
			"type":"SCALAR"
		},
		{
			"bufferView":25,
			"componentType":5126,
			"count":1,
			"type":"MAT4"
		}
	],
	"bufferViews":[
		{
			"buffer":0,
			"byteLength":2880,
			"byteOffset":0,
			"target":34962
		},
		{
			"buffer":0,
			"byteLength":2880,
			"byteOffset":2880,
			"target":34962
		},
		{
			"buffer":0,
			"byteLength":1920,
			"byteOffset":5760,
			"target":34962
		},
		{
			"buffer":0,
			"byteLength":720,
			"byteOffset":7680,
			"target":34963
		},
		{
			"buffer":0,
			"byteLength":2880,
			"byteOffset":8400,
			"target":34962
		},
		{
			"buffer":0,
			"byteLength":2880,
			"byteOffset":11280,
			"target":34962
		},
		{
			"buffer":0,
			"byteLength":1920,
			"byteOffset":14160,
			"target":34962
		},
		{
			"buffer":0,
			"byteLength":3168,
			"byteOffset":16080,
			"target":34962
		},
		{
			"buffer":0,
			"byteLength":3168,
			"byteOffset":19248,
			"target":34962
		},
		{
			"buffer":0,
			"byteLength":2112,
			"byteOffset":22416,
			"target":34962
		},
		{
			"buffer":0,
			"byteLength":792,
			"byteOffset":24528,
			"target":34963
		},
		{
			"buffer":0,
			"byteLength":31104,
			"byteOffset":25320,
			"target":34962
		},
		{
			"buffer":0,
			"byteLength":31104,
			"byteOffset":56424,
			"target":34962
		},
		{
			"buffer":0,
			"byteLength":20736,
			"byteOffset":87528,
			"target":34962
		},
		{
			"buffer":0,
			"byteLength":7776,
			"byteOffset":108264,
			"target":34963
		},
		{
			"buffer":0,
			"byteLength":2880,
			"byteOffset":116040,
			"target":34962
		},
		{
			"buffer":0,
			"byteLength":2880,
			"byteOffset":118920,
			"target":34962
		},
		{
			"buffer":0,
			"byteLength":1920,
			"byteOffset":121800,
			"target":34962
		},
		{
			"buffer":0,
			"byteLength":2880,
			"byteOffset":123720,
			"target":34962
		},
		{
			"buffer":0,
			"byteLength":2880,
			"byteOffset":126600,
			"target":34962
		},
		{
			"buffer":0,
			"byteLength":1920,
			"byteOffset":129480,
			"target":34962
		},
		{
			"buffer":0,
			"byteLength":13248,
			"byteOffset":131400,
			"target":34962
		},
		{
			"buffer":0,
			"byteLength":13248,
			"byteOffset":144648,
			"target":34962
		},
		{
			"buffer":0,
			"byteLength":8832,
			"byteOffset":157896,
			"target":34962
		},
		{
			"buffer":0,
			"byteLength":3312,
			"byteOffset":166728,
			"target":34963
		},
		{
			"buffer":0,
			"byteLength":64,
			"byteOffset":170040
		}
	],
	"buffers":[
		{
			"byteLength":170104,
			"uri":"meeko.bin"
		}
	]
}
