{
	"asset":{
		"generator":"Khronos glTF Blender I/O v4.0.44",
		"version":"2.0"
	},
	"scene":0,
	"scenes":[
		{
			"name":"Scene",
			"nodes":[
				0,
				1,
				2,
				3,
				4,
				5,
				6
			]
		}
	],
	"nodes":[
		{
			"mesh":0,
			"name":"Cube.006",
			"translation":[
				-18,
				5,
				2
			]
		},
		{
			"mesh":1,
			"name":"Cube.017",
			"translation":[
				-18,
				9,
				-14
			]
		},
		{
			"mesh":2,
			"name":"Cube.071",
			"translation":[
				-23,
				18,
				-6
			]
		},
		{
			"mesh":3,
			"name":"Cube.088",
			"translation":[
				-10,
				15,
				-5
			]
		},
		{
			"mesh":4,
			"name":"Cube.146",
			"translation":[
				-4,
				7,
				-14
			]
		},
		{
			"mesh":5,
			"name":"Cube.154",
			"translation":[
				-4,
				9,
				2
			]
		},
		{
			"mesh":6,
			"name":"Cube.203",
			"translation":[
				5,
				20,
				-9
			]
		}
	],
	"meshes":[
		{
			"name":"Cube.011",
			"primitives":[
				{
					"attributes":{
						"POSITION":0,
						"NORMAL":1,
						"TEXCOORD_0":2
					},
					"indices":3
				}
			]
		},
		{
			"name":"Cube.024",
			"primitives":[
				{
					"attributes":{
						"POSITION":4,
						"NORMAL":5,
						"TEXCOORD_0":6
					},
					"indices":3
				}
			]
		},
		{
			"name":"Cube.080",
			"primitives":[
				{
					"attributes":{
						"POSITION":7,
						"NORMAL":8,
						"TEXCOORD_0":9
					},
					"indices":10
				}
			]
		},
		{
			"name":"Cube.099",
			"primitives":[
				{
					"attributes":{
						"POSITION":11,
						"NORMAL":12,
						"TEXCOORD_0":13
					},
					"indices":14
				}
			]
		},
		{
			"name":"Cube.157",
			"primitives":[
				{
					"attributes":{
						"POSITION":15,
						"NORMAL":16,
						"TEXCOORD_0":17
					},
					"indices":3
				}
			]
		},
		{
			"name":"Cube.165",
			"primitives":[
				{
					"attributes":{
						"POSITION":18,
						"NORMAL":19,
						"TEXCOORD_0":20
					},
					"indices":3
				}
			]
		},
		{
			"name":"Cube.215",
			"primitives":[
				{
					"attributes":{
						"POSITION":21,
						"NORMAL":22,
						"TEXCOORD_0":23
					},
					"indices":24
				}
			]
		}
	],
	"accessors":[
		{
			"bufferView":0,
			"componentType":5126,
			"count":192,
			"max":[
				3,
				5,
				2
			],
			"min":[
				-1,
				-5,
				-2
			],
			"type":"VEC3"
		},
		{
			"bufferView":1,
			"componentType":5126,
			"count":192,
			"type":"VEC3"
		},
		{
			"bufferView":2,
			"componentType":5126,
			"count":192,
			"type":"VEC2"
		},
		{
			"bufferView":3,
			"componentType":5123,
			"count":288,
			"type":"SCALAR"
		},
		{
			"bufferView":4,
			"componentType":5126,
			"count":192,
			"max":[
				3,
				1,
				2
			],
			"min":[
				-1,
				-9,
				-2
			],
			"type":"VEC3"
		},
		{
			"bufferView":5,
			"componentType":5126,
			"count":192,
			"type":"VEC3"
		},
		{
			"bufferView":6,
			"componentType":5126,
			"count":192,
			"type":"VEC2"
		},
		{
			"bufferView":7,
			"componentType":5126,
			"count":312,
			"max":[
				3,
				9,
				1
			],
			"min":[
				-7,
				-5,
				-1
			],
			"type":"VEC3"
		},
		{
			"bufferView":8,
			"componentType":5126,
			"count":312,
			"type":"VEC3"
		},
		{
			"bufferView":9,
			"componentType":5126,
			"count":312,
			"type":"VEC2"
		},
		{
			"bufferView":10,
			"componentType":5123,
			"count":468,
			"type":"SCALAR"
		},
		{
			"bufferView":11,
			"componentType":5126,
			"count":2784,
			"max":[
				7,
				1,
				5
			],
			"min":[
				-9,
				-5,
				-7
			],
			"type":"VEC3"
		},
		{
			"bufferView":12,
			"componentType":5126,
			"count":2784,
			"type":"VEC3"
		},
		{
			"bufferView":13,
			"componentType":5126,
			"count":2784,
			"type":"VEC2"
		},
		{
			"bufferView":14,
			"componentType":5123,
			"count":4176,
			"type":"SCALAR"
		},
		{
			"bufferView":15,
			"componentType":5126,
			"count":192,
			"max":[
				3,
				3,
				2
			],
			"min":[
				-1,
				-7,
				-2
			],
			"type":"VEC3"
		},
		{
			"bufferView":16,
			"componentType":5126,
			"count":192,
			"type":"VEC3"
		},
		{
			"bufferView":17,
			"componentType":5126,
			"count":192,
			"type":"VEC2"
		},
		{
			"bufferView":18,
			"componentType":5126,
			"count":192,
			"max":[
				3,
				1,
				2
			],
			"min":[
				-1,
				-9,
				-2
			],
			"type":"VEC3"
		},
		{
			"bufferView":19,
			"componentType":5126,
			"count":192,
			"type":"VEC3"
		},
		{
			"bufferView":20,
			"componentType":5126,
			"count":192,
			"type":"VEC2"
		},
		{
			"bufferView":21,
			"componentType":5126,
			"count":1104,
			"max":[
				1,
				5,
				7
			],
			"min":[
				-7,
				-7,
				-1
			],
			"type":"VEC3"
		},
		{
			"bufferView":22,
			"componentType":5126,
			"count":1104,
			"type":"VEC3"
		},
		{
			"bufferView":23,
			"componentType":5126,
			"count":1104,
			"type":"VEC2"
		},
		{
			"bufferView":24,
			"componentType":5123,
			"count":1656,
			"type":"SCALAR"
		}
	],
	"bufferViews":[
		{
			"buffer":0,
			"byteLength":2304,
			"byteOffset":0,
			"target":34962
		},
		{
			"buffer":0,
			"byteLength":2304,
			"byteOffset":2304,
			"target":34962
		},
		{
			"buffer":0,
			"byteLength":1536,
			"byteOffset":4608,
			"target":34962
		},
		{
			"buffer":0,
			"byteLength":576,
			"byteOffset":6144,
			"target":34963
		},
		{
			"buffer":0,
			"byteLength":2304,
			"byteOffset":6720,
			"target":34962
		},
		{
			"buffer":0,
			"byteLength":2304,
			"byteOffset":9024,
			"target":34962
		},
		{
			"buffer":0,
			"byteLength":1536,
			"byteOffset":11328,
			"target":34962
		},
		{
			"buffer":0,
			"byteLength":3744,
			"byteOffset":12864,
			"target":34962
		},
		{
			"buffer":0,
			"byteLength":3744,
			"byteOffset":16608,
			"target":34962
		},
		{
			"buffer":0,
			"byteLength":2496,
			"byteOffset":20352,
			"target":34962
		},
		{
			"buffer":0,
			"byteLength":936,
			"byteOffset":22848,
			"target":34963
		},
		{
			"buffer":0,
			"byteLength":33408,
			"byteOffset":23784,
			"target":34962
		},
		{
			"buffer":0,
			"byteLength":33408,
			"byteOffset":57192,
			"target":34962
		},
		{
			"buffer":0,
			"byteLength":22272,
			"byteOffset":90600,
			"target":34962
		},
		{
			"buffer":0,
			"byteLength":8352,
			"byteOffset":112872,
			"target":34963
		},
		{
			"buffer":0,
			"byteLength":2304,
			"byteOffset":121224,
			"target":34962
		},
		{
			"buffer":0,
			"byteLength":2304,
			"byteOffset":123528,
			"target":34962
		},
		{
			"buffer":0,
			"byteLength":1536,
			"byteOffset":125832,
			"target":34962
		},
		{
			"buffer":0,
			"byteLength":2304,
			"byteOffset":127368,
			"target":34962
		},
		{
			"buffer":0,
			"byteLength":2304,
			"byteOffset":129672,
			"target":34962
		},
		{
			"buffer":0,
			"byteLength":1536,
			"byteOffset":131976,
			"target":34962
		},
		{
			"buffer":0,
			"byteLength":13248,
			"byteOffset":133512,
			"target":34962
		},
		{
			"buffer":0,
			"byteLength":13248,
			"byteOffset":146760,
			"target":34962
		},
		{
			"buffer":0,
			"byteLength":8832,
			"byteOffset":160008,
			"target":34962
		},
		{
			"buffer":0,
			"byteLength":3312,
			"byteOffset":168840,
			"target":34963
		}
	],
	"buffers":[
		{
			"byteLength":172152,
			"uri":"meeko.bin"
		}
	]
}
