{
	"asset":{
		"generator":"Khronos glTF Blender I/O v4.0.44",
		"version":"2.0"
	},
	"scene":0,
	"scenes":[
		{
			"name":"Scene",
			"nodes":[
				0
			]
		}
	],
	"nodes":[
		{
			"mesh":0,
			"name":"Cube.332",
			"translation":[
				-5,
				10,
				17
			]
		}
	],
	"meshes":[
		{
			"name":"Cube.333",
			"primitives":[
				{
					"attributes":{
						"POSITION":0,
						"NORMAL":1,
						"TEXCOORD_0":2
					},
					"indices":3
				}
			]
		}
	],
	"accessors":[
		{
			"bufferView":0,
			"componentType":5126,
			"count":4968,
			"max":[
				9,
				15,
				6
			],
			"min":[
				-25,
				-11,
				-8
			],
			"type":"VEC3"
		},
		{
			"bufferView":1,
			"componentType":5126,
			"count":4968,
			"type":"VEC3"
		},
		{
			"bufferView":2,
			"componentType":5126,
			"count":4968,
			"type":"VEC2"
		},
		{
			"bufferView":3,
			"componentType":5123,
			"count":7452,
			"type":"SCALAR"
		}
	],
	"bufferViews":[
		{
			"buffer":0,
			"byteLength":59616,
			"byteOffset":0,
			"target":34962
		},
		{
			"buffer":0,
			"byteLength":59616,
			"byteOffset":59616,
			"target":34962
		},
		{
			"buffer":0,
			"byteLength":39744,
			"byteOffset":119232,
			"target":34962
		},
		{
			"buffer":0,
			"byteLength":14904,
			"byteOffset":158976,
			"target":34963
		}
	],
	"buffers":[
		{
			"byteLength":173880,
			"uri":"meeko.bin"
		}
	]
}
