{
	"asset":{
		"generator":"Khronos glTF Blender I/O v4.0.44",
		"version":"2.0"
	},
	"scene":0,
	"scenes":[
		{
			"name":"Scene",
			"nodes":[
				0
			]
		}
	],
	"nodes":[
		{
			"mesh":0,
			"name":"Cube.10184",
			"rotation":[
				-0.7071068286895752,
				0,
				0,
				0.7071068286895752
			],
			"scale":[
				0.10000000149011612,
				0.10000000149011612,
				0.10000000149011612
			]
		}
	],
	"materials":[
		{
			"doubleSided":true,
			"name":"Material.439",
			"pbrMetallicRoughness":{
				"baseColorFactor":[
					0.009543162770569324,
					0.911249577999115,
					0.3955104947090149,
					1
				],
				"metallicFactor":0,
				"roughnessFactor":0.5
			}
		},
		{
			"doubleSided":true,
			"name":"Material.441",
			"pbrMetallicRoughness":{
				"baseColorFactor":[
					0.001304824952967465,
					0.0010679131373763084,
					0.06562996655702591,
					1
				],
				"metallicFactor":0,
				"roughnessFactor":0.5
			}
		},
		{
			"doubleSided":true,
			"name":"Material.442",
			"pbrMetallicRoughness":{
				"baseColorFactor":[
					0.6655001640319824,
					0.08437246084213257,
					0.06847325712442398,
					1
				],
				"metallicFactor":0,
				"roughnessFactor":0.5
			}
		},
		{
			"doubleSided":true,
			"name":"Material.443",
			"pbrMetallicRoughness":{
				"metallicFactor":0,
				"roughnessFactor":0.5
			}
		},
		{
			"doubleSided":true,
			"name":"Material.444",
			"pbrMetallicRoughness":{
				"baseColorFactor":[
					0.009543162770569324,
					0.911249577999115,
					0.3955104947090149,
					1
				],
				"metallicFactor":0,
				"roughnessFactor":0.5
			}
		},
		{
			"doubleSided":true,
			"name":"Material.445",
			"pbrMetallicRoughness":{
				"baseColorFactor":[
					0.009543162770569324,
					0.911249577999115,
					0.3955104947090149,
					1
				],
				"metallicFactor":0,
				"roughnessFactor":0.5
			}
		},
		{
			"doubleSided":true,
			"name":"Material.446",
			"pbrMetallicRoughness":{
				"baseColorFactor":[
					0.009543162770569324,
					0.911249577999115,
					0.3955104947090149,
					1
				],
				"metallicFactor":0,
				"roughnessFactor":0.5
			}
		},
		{
			"doubleSided":true,
			"name":"Material.447",
			"pbrMetallicRoughness":{
				"baseColorFactor":[
					0.009543162770569324,
					0.911249577999115,
					0.3955104947090149,
					1
				],
				"metallicFactor":0,
				"roughnessFactor":0.5
			}
		},
		{
			"doubleSided":true,
			"name":"Material.448",
			"pbrMetallicRoughness":{
				"baseColorFactor":[
					1,
					0.6287413835525513,
					0,
					1
				],
				"metallicFactor":0,
				"roughnessFactor":0.5
			}
		},
		{
			"doubleSided":true,
			"name":"Material.449",
			"pbrMetallicRoughness":{
				"baseColorFactor":[
					1,
					0.6287413835525513,
					0,
					1
				],
				"metallicFactor":0,
				"roughnessFactor":0.5
			}
		},
		{
			"doubleSided":true,
			"name":"Material.450",
			"pbrMetallicRoughness":{
				"baseColorFactor":[
					0.009543162770569324,
					0.911249577999115,
					0.3955104947090149,
					1
				],
				"metallicFactor":0,
				"roughnessFactor":0.5
			}
		},
		{
			"doubleSided":true,
			"name":"Material.451",
			"pbrMetallicRoughness":{
				"baseColorFactor":[
					0.009543162770569324,
					0.911249577999115,
					0.3955104947090149,
					1
				],
				"metallicFactor":0,
				"roughnessFactor":0.5
			}
		},
		{
			"doubleSided":true,
			"name":"Material.452",
			"pbrMetallicRoughness":{
				"baseColorFactor":[
					1,
					0.6287413835525513,
					0,
					1
				],
				"metallicFactor":0,
				"roughnessFactor":0.5
			}
		},
		{
			"doubleSided":true,
			"name":"Material.453",
			"pbrMetallicRoughness":{
				"baseColorFactor":[
					1,
					0.6287413835525513,
					0,
					1
				],
				"metallicFactor":0,
				"roughnessFactor":0.5
			}
		}
	],
	"meshes":[
		{
			"name":"Cube.10263",
			"primitives":[
				{
					"attributes":{
						"POSITION":0,
						"NORMAL":1,
						"TEXCOORD_0":2
					},
					"indices":3,
					"material":0
				},
				{
					"attributes":{
						"POSITION":4,
						"NORMAL":5,
						"TEXCOORD_0":6
					},
					"indices":7,
					"material":1
				},
				{
					"attributes":{
						"POSITION":8,
						"NORMAL":9,
						"TEXCOORD_0":10
					},
					"indices":11,
					"material":2
				},
				{
					"attributes":{
						"POSITION":12,
						"NORMAL":13,
						"TEXCOORD_0":14
					},
					"indices":15,
					"material":3
				},
				{
					"attributes":{
						"POSITION":16,
						"NORMAL":17,
						"TEXCOORD_0":18
					},
					"indices":19,
					"material":4
				},
				{
					"attributes":{
						"POSITION":20,
						"NORMAL":21,
						"TEXCOORD_0":22
					},
					"indices":23,
					"material":5
				},
				{
					"attributes":{
						"POSITION":24,
						"NORMAL":25,
						"TEXCOORD_0":26
					},
					"indices":23,
					"material":6
				},
				{
					"attributes":{
						"POSITION":27,
						"NORMAL":28,
						"TEXCOORD_0":29
					},
					"indices":30,
					"material":7
				},
				{
					"attributes":{
						"POSITION":31,
						"NORMAL":32,
						"TEXCOORD_0":33
					},
					"indices":34,
					"material":8
				},
				{
					"attributes":{
						"POSITION":35,
						"NORMAL":36,
						"TEXCOORD_0":37
					},
					"indices":38,
					"material":9
				},
				{
					"attributes":{
						"POSITION":39,
						"NORMAL":40,
						"TEXCOORD_0":41
					},
					"indices":23,
					"material":10
				},
				{
					"attributes":{
						"POSITION":42,
						"NORMAL":43,
						"TEXCOORD_0":44
					},
					"indices":23,
					"material":11
				},
				{
					"attributes":{
						"POSITION":45,
						"NORMAL":46,
						"TEXCOORD_0":47
					},
					"indices":34,
					"material":12
				},
				{
					"attributes":{
						"POSITION":48,
						"NORMAL":49,
						"TEXCOORD_0":50
					},
					"indices":38,
					"material":13
				}
			]
		}
	],
	"accessors":[
		{
			"bufferView":0,
			"componentType":5126,
			"count":54288,
			"max":[
				32.74493408203125,
				5,
				1
			],
			"min":[
				-11,
				-41,
				-11
			],
			"type":"VEC3"
		},
		{
			"bufferView":1,
			"componentType":5126,
			"count":54288,
			"type":"VEC3"
		},
		{
			"bufferView":2,
			"componentType":5126,
			"count":54288,
			"type":"VEC2"
		},
		{
			"bufferView":3,
			"componentType":5123,
			"count":81432,
			"type":"SCALAR"
		},
		{
			"bufferView":4,
			"componentType":5126,
			"count":7488,
			"max":[
				20.74493408203125,
				19,
				1
			],
			"min":[
				1,
				5,
				-11
			],
			"type":"VEC3"
		},
		{
			"bufferView":5,
			"componentType":5126,
			"count":7488,
			"type":"VEC3"
		},
		{
			"bufferView":6,
			"componentType":5126,
			"count":7488,
			"type":"VEC2"
		},
		{
			"bufferView":7,
			"componentType":5123,
			"count":11232,
			"type":"SCALAR"
		},
		{
			"bufferView":8,
			"componentType":5126,
			"count":480,
			"max":[
				20.74493408203125,
				-23,
				1
			],
			"min":[
				1,
				-31,
				-1
			],
			"type":"VEC3"
		},
		{
			"bufferView":9,
			"componentType":5126,
			"count":480,
			"type":"VEC3"
		},
		{
			"bufferView":10,
			"componentType":5126,
			"count":480,
			"type":"VEC2"
		},
		{
			"bufferView":11,
			"componentType":5123,
			"count":720,
			"type":"SCALAR"
		},
		{
			"bufferView":12,
			"componentType":5126,
			"count":384,
			"max":[
				18.74493408203125,
				-25,
				1
			],
			"min":[
				3,
				-29,
				-1
			],
			"type":"VEC3"
		},
		{
			"bufferView":13,
			"componentType":5126,
			"count":384,
			"type":"VEC3"
		},
		{
			"bufferView":14,
			"componentType":5126,
			"count":384,
			"type":"VEC2"
		},
		{
			"bufferView":15,
			"componentType":5123,
			"count":576,
			"type":"SCALAR"
		},
		{
			"bufferView":16,
			"componentType":5126,
			"count":72,
			"max":[
				-1,
				-19,
				-9
			],
			"min":[
				-7,
				-21,
				-11
			],
			"type":"VEC3"
		},
		{
			"bufferView":17,
			"componentType":5126,
			"count":72,
			"type":"VEC3"
		},
		{
			"bufferView":18,
			"componentType":5126,
			"count":72,
			"type":"VEC2"
		},
		{
			"bufferView":19,
			"componentType":5123,
			"count":108,
			"type":"SCALAR"
		},
		{
			"bufferView":20,
			"componentType":5126,
			"count":96,
			"max":[
				1,
				-17,
				-9
			],
			"min":[
				-7,
				-19,
				-11
			],
			"type":"VEC3"
		},
		{
			"bufferView":21,
			"componentType":5126,
			"count":96,
			"type":"VEC3"
		},
		{
			"bufferView":22,
			"componentType":5126,
			"count":96,
			"type":"VEC2"
		},
		{
			"bufferView":23,
			"componentType":5123,
			"count":144,
			"type":"SCALAR"
		},
		{
			"bufferView":24,
			"componentType":5126,
			"count":96,
			"max":[
				1,
				-15,
				-9
			],
			"min":[
				-7,
				-17,
				-11
			],
			"type":"VEC3"
		},
		{
			"bufferView":25,
			"componentType":5126,
			"count":96,
			"type":"VEC3"
		},
		{
			"bufferView":26,
			"componentType":5126,
			"count":96,
			"type":"VEC2"
		},
		{
			"bufferView":27,
			"componentType":5126,
			"count":24,
			"max":[
				20.74493408203125,
				-15,
				1
			],
			"min":[
				18.74493408203125,
				-17,
				-1
			],
			"type":"VEC3"
		},
		{
			"bufferView":28,
			"componentType":5126,
			"count":24,
			"type":"VEC3"
		},
		{
			"bufferView":29,
			"componentType":5126,
			"count":24,
			"type":"VEC2"
		},
		{
			"bufferView":30,
			"componentType":5123,
			"count":36,
			"type":"SCALAR"
		},
		{
			"bufferView":31,
			"componentType":5126,
			"count":264,
			"max":[
				22.74493408203125,
				-5,
				1
			],
			"min":[
				14.74493408203125,
				-11,
				-1
			],
			"type":"VEC3"
		},
		{
			"bufferView":32,
			"componentType":5126,
			"count":264,
			"type":"VEC3"
		},
		{
			"bufferView":33,
			"componentType":5126,
			"count":264,
			"type":"VEC2"
		},
		{
			"bufferView":34,
			"componentType":5123,
			"count":396,
			"type":"SCALAR"
		},
		{
			"bufferView":35,
			"componentType":5126,
			"count":24,
			"max":[
				20.74493408203125,
				-7,
				1
			],
			"min":[
				18.74493408203125,
				-9,
				-1
			],
			"type":"VEC3"
		},
		{
			"bufferView":36,
			"componentType":5126,
			"count":24,
			"type":"VEC3"
		},
		{
			"bufferView":37,
			"componentType":5126,
			"count":24,
			"type":"VEC2"
		},
		{
			"bufferView":38,
			"componentType":5123,
			"count":36,
			"type":"SCALAR"
		},
		{
			"bufferView":39,
			"componentType":5126,
			"count":96,
			"max":[
				11,
				-17,
				1
			],
			"min":[
				3,
				-19,
				-1
			],
			"type":"VEC3"
		},
		{
			"bufferView":40,
			"componentType":5126,
			"count":96,
			"type":"VEC3"
		},
		{
			"bufferView":41,
			"componentType":5126,
			"count":96,
			"type":"VEC2"
		},
		{
			"bufferView":42,
			"componentType":5126,
			"count":96,
			"max":[
				11,
				-15,
				1
			],
			"min":[
				3,
				-17,
				-1
			],
			"type":"VEC3"
		},
		{
			"bufferView":43,
			"componentType":5126,
			"count":96,
			"type":"VEC3"
		},
		{
			"bufferView":44,
			"componentType":5126,
			"count":96,
			"type":"VEC2"
		},
		{
			"bufferView":45,
			"componentType":5126,
			"count":264,
			"max":[
				7,
				-5,
				1
			],
			"min":[
				-1,
				-11,
				-1
			],
			"type":"VEC3"
		},
		{
			"bufferView":46,
			"componentType":5126,
			"count":264,
			"type":"VEC3"
		},
		{
			"bufferView":47,
			"componentType":5126,
			"count":264,
			"type":"VEC2"
		},
		{
			"bufferView":48,
			"componentType":5126,
			"count":24,
			"max":[
				5,
				-7,
				1
			],
			"min":[
				3,
				-9,
				-1
			],
			"type":"VEC3"
		},
		{
			"bufferView":49,
			"componentType":5126,
			"count":24,
			"type":"VEC3"
		},
		{
			"bufferView":50,
			"componentType":5126,
			"count":24,
			"type":"VEC2"
		}
	],
	"bufferViews":[
		{
			"buffer":0,
			"byteLength":651456,
			"byteOffset":0,
			"target":34962
		},
		{
			"buffer":0,
			"byteLength":651456,
			"byteOffset":651456,
			"target":34962
		},
		{
			"buffer":0,
			"byteLength":434304,
			"byteOffset":1302912,
			"target":34962
		},
		{
			"buffer":0,
			"byteLength":162864,
			"byteOffset":1737216,
			"target":34963
		},
		{
			"buffer":0,
			"byteLength":89856,
			"byteOffset":1900080,
			"target":34962
		},
		{
			"buffer":0,
			"byteLength":89856,
			"byteOffset":1989936,
			"target":34962
		},
		{
			"buffer":0,
			"byteLength":59904,
			"byteOffset":2079792,
			"target":34962
		},
		{
			"buffer":0,
			"byteLength":22464,
			"byteOffset":2139696,
			"target":34963
		},
		{
			"buffer":0,
			"byteLength":5760,
			"byteOffset":2162160,
			"target":34962
		},
		{
			"buffer":0,
			"byteLength":5760,
			"byteOffset":2167920,
			"target":34962
		},
		{
			"buffer":0,
			"byteLength":3840,
			"byteOffset":2173680,
			"target":34962
		},
		{
			"buffer":0,
			"byteLength":1440,
			"byteOffset":2177520,
			"target":34963
		},
		{
			"buffer":0,
			"byteLength":4608,
			"byteOffset":2178960,
			"target":34962
		},
		{
			"buffer":0,
			"byteLength":4608,
			"byteOffset":2183568,
			"target":34962
		},
		{
			"buffer":0,
			"byteLength":3072,
			"byteOffset":2188176,
			"target":34962
		},
		{
			"buffer":0,
			"byteLength":1152,
			"byteOffset":2191248,
			"target":34963
		},
		{
			"buffer":0,
			"byteLength":864,
			"byteOffset":2192400,
			"target":34962
		},
		{
			"buffer":0,
			"byteLength":864,
			"byteOffset":2193264,
			"target":34962
		},
		{
			"buffer":0,
			"byteLength":576,
			"byteOffset":2194128,
			"target":34962
		},
		{
			"buffer":0,
			"byteLength":216,
			"byteOffset":2194704,
			"target":34963
		},
		{
			"buffer":0,
			"byteLength":1152,
			"byteOffset":2194920,
			"target":34962
		},
		{
			"buffer":0,
			"byteLength":1152,
			"byteOffset":2196072,
			"target":34962
		},
		{
			"buffer":0,
			"byteLength":768,
			"byteOffset":2197224,
			"target":34962
		},
		{
			"buffer":0,
			"byteLength":288,
			"byteOffset":2197992,
			"target":34963
		},
		{
			"buffer":0,
			"byteLength":1152,
			"byteOffset":2198280,
			"target":34962
		},
		{
			"buffer":0,
			"byteLength":1152,
			"byteOffset":2199432,
			"target":34962
		},
		{
			"buffer":0,
			"byteLength":768,
			"byteOffset":2200584,
			"target":34962
		},
		{
			"buffer":0,
			"byteLength":288,
			"byteOffset":2201352,
			"target":34962
		},
		{
			"buffer":0,
			"byteLength":288,
			"byteOffset":2201640,
			"target":34962
		},
		{
			"buffer":0,
			"byteLength":192,
			"byteOffset":2201928,
			"target":34962
		},
		{
			"buffer":0,
			"byteLength":72,
			"byteOffset":2202120,
			"target":34963
		},
		{
			"buffer":0,
			"byteLength":3168,
			"byteOffset":2202192,
			"target":34962
		},
		{
			"buffer":0,
			"byteLength":3168,
			"byteOffset":2205360,
			"target":34962
		},
		{
			"buffer":0,
			"byteLength":2112,
			"byteOffset":2208528,
			"target":34962
		},
		{
			"buffer":0,
			"byteLength":792,
			"byteOffset":2210640,
			"target":34963
		},
		{
			"buffer":0,
			"byteLength":288,
			"byteOffset":2211432,
			"target":34962
		},
		{
			"buffer":0,
			"byteLength":288,
			"byteOffset":2211720,
			"target":34962
		},
		{
			"buffer":0,
			"byteLength":192,
			"byteOffset":2212008,
			"target":34962
		},
		{
			"buffer":0,
			"byteLength":72,
			"byteOffset":2212200,
			"target":34963
		},
		{
			"buffer":0,
			"byteLength":1152,
			"byteOffset":2212272,
			"target":34962
		},
		{
			"buffer":0,
			"byteLength":1152,
			"byteOffset":2213424,
			"target":34962
		},
		{
			"buffer":0,
			"byteLength":768,
			"byteOffset":2214576,
			"target":34962
		},
		{
			"buffer":0,
			"byteLength":1152,
			"byteOffset":2215344,
			"target":34962
		},
		{
			"buffer":0,
			"byteLength":1152,
			"byteOffset":2216496,
			"target":34962
		},
		{
			"buffer":0,
			"byteLength":768,
			"byteOffset":2217648,
			"target":34962
		},
		{
			"buffer":0,
			"byteLength":3168,
			"byteOffset":2218416,
			"target":34962
		},
		{
			"buffer":0,
			"byteLength":3168,
			"byteOffset":2221584,
			"target":34962
		},
		{
			"buffer":0,
			"byteLength":2112,
			"byteOffset":2224752,
			"target":34962
		},
		{
			"buffer":0,
			"byteLength":288,
			"byteOffset":2226864,
			"target":34962
		},
		{
			"buffer":0,
			"byteLength":288,
			"byteOffset":2227152,
			"target":34962
		},
		{
			"buffer":0,
			"byteLength":192,
			"byteOffset":2227440,
			"target":34962
		}
	],
	"buffers":[
		{
			"byteLength":2227632,
			"uri":"enemy.bin"
		}
	]
}
